<svg width="582" height="148" viewBox="0 0 582 148" fill="none" xmlns="http://www.w3.org/2000/svg">
<path d="M10.848 86C9.504 85.936 8.384 85.424 7.488 84.464C6.592 83.44 6.176 82.288 6.24 81.008C6.368 78.128 6.464 75.824 6.528 74.096C6.592 71.856 6.656 69.456 6.72 66.896C6.784 64.272 6.816 62.064 6.816 60.272C6.88 58.48 6.88 56.336 6.816 53.84C6.816 51.28 6.816 49.328 6.816 47.984C6.816 46.576 6.784 44.144 6.72 40.688C6.72 37.168 6.688 34.96 6.624 34.064C6.624 33.104 6.592 31.056 6.528 27.92C6.464 24.72 6.432 22.8 6.432 22.16C6.432 20.816 6.88 19.664 7.776 18.704C8.672 17.744 9.792 17.264 11.136 17.264C12.48 17.264 13.632 17.712 14.592 18.608C15.552 19.504 16.032 20.624 16.032 21.968C16.224 30.544 16.32 35.92 16.32 38.096C17.28 37.456 18.272 36.944 19.296 36.56C23.648 34.96 27.584 34.544 31.104 35.312C34.624 36.016 37.792 37.68 40.608 40.304C43.04 42.608 45.024 45.424 46.56 48.752C48.16 52.08 49.184 55.088 49.632 57.776C50.72 65.904 49.312 72.72 45.408 78.224C43.168 81.424 40.224 83.696 36.576 85.04C32.992 86.448 28.864 86.768 24.192 86C21.056 85.488 18.176 84.464 15.552 82.928C15.168 83.888 14.528 84.656 13.632 85.232C12.8 85.808 11.872 86.064 10.848 86ZM25.728 76.592C31.168 77.424 35.136 76.112 37.632 72.656C40.064 69.2 40.896 64.656 40.128 59.024C39.36 54.288 37.344 50.384 34.08 47.312C30.88 44.368 27.104 43.728 22.752 45.392C22.304 45.584 21.888 45.808 21.504 46.064C21.184 46.256 20.832 46.576 20.448 47.024L19.296 47.984C19.04 48.304 18.592 48.848 17.952 49.616C17.312 50.32 16.8 50.864 16.416 51.248C16.48 57.904 16.416 64.4 16.224 70.736L16.32 70.832C18.496 73.968 21.632 75.888 25.728 76.592ZM86.4458 85.328C77.9978 87.376 71.2458 85.68 66.1898 80.24C62.1578 76.08 59.6618 70.736 58.7018 64.208C57.9978 59.088 58.6058 54.224 60.5258 49.616C62.8298 43.728 66.4778 39.376 71.4698 36.56C72.4938 35.984 73.7738 35.568 75.3098 35.312C75.3738 35.312 75.8218 35.28 76.6538 35.216C76.9738 35.152 77.2298 35.088 77.4218 35.024C78.3818 34.832 79.3418 34.928 80.3018 35.312C80.5578 35.312 81.1658 35.344 82.1258 35.408C83.0858 35.408 83.7258 35.44 84.0458 35.504C84.3658 35.504 84.9098 35.568 85.6778 35.696C86.5098 35.76 87.1818 35.856 87.6938 35.984L89.5178 36.656C90.2858 36.912 91.0218 37.232 91.7258 37.616C92.4298 38 93.1978 38.448 94.0298 38.96C98.1898 41.776 101.07 45.744 102.67 50.864C104.27 55.92 104.686 60.016 103.918 63.152C103.342 66.608 102.318 69.84 100.846 72.848C99.3738 75.792 97.3258 78.416 94.7018 80.72C92.1418 83.024 89.3898 84.56 86.4458 85.328ZM83.4698 75.344C86.2218 74.96 88.5578 73.552 90.4778 71.12C92.4618 68.624 93.7418 66 94.3178 63.248C94.9578 60.496 94.7338 57.488 93.6458 54.224C92.6218 50.896 90.9578 48.496 88.6538 47.024C87.9498 46.512 87.3738 46.16 86.9258 45.968C86.4778 45.712 85.9338 45.52 85.2938 45.392C84.7178 45.2 84.2378 45.104 83.8538 45.104C83.5338 45.104 82.7978 45.072 81.6458 45.008C80.4938 44.944 79.4698 44.88 78.5738 44.816C78.3818 44.816 78.1578 44.784 77.9018 44.72C77.1978 44.784 76.8138 44.816 76.7498 44.816L76.0778 45.008C73.2618 46.544 71.0858 49.008 69.5498 52.4C68.0778 55.728 67.6618 59.184 68.3018 62.768C69.0058 67.12 70.5738 70.416 73.0058 72.656C75.6298 75.088 79.1178 75.984 83.4698 75.344ZM141.008 85.328C132.56 87.376 125.808 85.68 120.752 80.24C116.72 76.08 114.224 70.736 113.264 64.208C112.56 59.088 113.168 54.224 115.088 49.616C117.392 43.728 121.04 39.376 126.032 36.56C127.056 35.984 128.336 35.568 129.872 35.312C129.936 35.312 130.384 35.28 131.216 35.216C131.536 35.152 131.792 35.088 131.984 35.024C132.944 34.832 133.904 34.928 134.864 35.312C135.12 35.312 135.728 35.344 136.688 35.408C137.648 35.408 138.288 35.44 138.608 35.504C138.928 35.504 139.472 35.568 140.24 35.696C141.072 35.76 141.744 35.856 142.256 35.984L144.08 36.656C144.848 36.912 145.584 37.232 146.288 37.616C146.992 38 147.76 38.448 148.592 38.96C152.752 41.776 155.632 45.744 157.232 50.864C158.832 55.92 159.248 60.016 158.48 63.152C157.904 66.608 156.88 69.84 155.408 72.848C153.936 75.792 151.888 78.416 149.264 80.72C146.704 83.024 143.952 84.56 141.008 85.328ZM138.032 75.344C140.784 74.96 143.12 73.552 145.04 71.12C147.024 68.624 148.304 66 148.88 63.248C149.52 60.496 149.296 57.488 148.208 54.224C147.184 50.896 145.52 48.496 143.216 47.024C142.512 46.512 141.936 46.16 141.488 45.968C141.04 45.712 140.496 45.52 139.856 45.392C139.28 45.2 138.8 45.104 138.416 45.104C138.096 45.104 137.36 45.072 136.208 45.008C135.056 44.944 134.032 44.88 133.136 44.816C132.944 44.816 132.72 44.784 132.464 44.72C131.76 44.784 131.376 44.816 131.312 44.816L130.64 45.008C127.824 46.544 125.648 49.008 124.112 52.4C122.64 55.728 122.224 59.184 122.864 62.768C123.568 67.12 125.136 70.416 127.568 72.656C130.192 75.088 133.68 75.984 138.032 75.344ZM202.291 84.464C194.931 76.336 189.235 68.72 185.203 61.616L180.019 65.936C179.891 66.064 179.763 66.16 179.635 66.224C179.507 71.216 179.315 76.304 179.059 81.488C178.995 82.832 178.451 83.952 177.427 84.848C176.467 85.744 175.315 86.16 173.971 86.096C172.691 86.032 171.603 85.52 170.707 84.56C169.811 83.536 169.395 82.384 169.459 81.104C170.163 66.384 170.515 46.704 170.515 22.064C170.515 20.72 170.963 19.6 171.859 18.704C172.819 17.744 173.971 17.264 175.315 17.264C176.659 17.264 177.779 17.744 178.675 18.704C179.635 19.6 180.115 20.72 180.115 22.064C180.115 34.608 180.051 45.104 179.923 53.552C189.267 45.744 195.731 40.112 199.315 36.656C200.147 35.632 201.235 35.088 202.579 35.024C203.923 34.96 205.075 35.376 206.035 36.272C207.059 37.104 207.603 38.192 207.667 39.536C207.731 40.88 207.315 42.032 206.419 42.992C203.219 46.128 198.643 50.256 192.691 55.376C196.531 62.416 202.099 70 209.395 78.128C210.291 79.088 210.707 80.24 210.643 81.584C210.579 82.864 210.035 83.952 209.011 84.848C208.051 85.744 206.899 86.16 205.555 86.096C204.275 86.032 203.187 85.488 202.291 84.464ZM241.04 85.328C232.592 87.376 225.84 85.68 220.784 80.24C216.752 76.08 214.256 70.736 213.296 64.208C212.592 59.088 213.2 54.224 215.12 49.616C217.424 43.728 221.072 39.376 226.064 36.56C227.088 35.984 228.368 35.568 229.904 35.312C229.968 35.312 230.416 35.28 231.248 35.216C231.568 35.152 231.824 35.088 232.016 35.024C232.976 34.832 233.936 34.928 234.896 35.312C235.152 35.312 235.76 35.344 236.72 35.408C237.68 35.408 238.32 35.44 238.64 35.504C238.96 35.504 239.504 35.568 240.272 35.696C241.104 35.76 241.776 35.856 242.288 35.984L244.112 36.656C244.88 36.912 245.616 37.232 246.32 37.616C247.024 38 247.792 38.448 248.624 38.96C252.784 41.776 255.664 45.744 257.264 50.864C258.864 55.92 259.28 60.016 258.512 63.152C257.936 66.608 256.912 69.84 255.44 72.848C253.968 75.792 251.92 78.416 249.296 80.72C246.736 83.024 243.984 84.56 241.04 85.328ZM238.064 75.344C240.816 74.96 243.152 73.552 245.072 71.12C247.056 68.624 248.336 66 248.912 63.248C249.552 60.496 249.328 57.488 248.24 54.224C247.216 50.896 245.552 48.496 243.248 47.024C242.544 46.512 241.968 46.16 241.52 45.968C241.072 45.712 240.528 45.52 239.888 45.392C239.312 45.2 238.832 45.104 238.448 45.104C238.128 45.104 237.392 45.072 236.24 45.008C235.088 44.944 234.064 44.88 233.168 44.816C232.976 44.816 232.752 44.784 232.496 44.72C231.792 44.784 231.408 44.816 231.344 44.816L230.672 45.008C227.856 46.544 225.68 49.008 224.144 52.4C222.672 55.728 222.256 59.184 222.896 62.768C223.6 67.12 225.168 70.416 227.6 72.656C230.224 75.088 233.712 75.984 238.064 75.344ZM275.643 86C274.491 86 273.499 85.648 272.667 84.944C271.835 84.24 271.355 83.216 271.227 81.872C270.203 73.488 269.627 63.888 269.499 53.072L269.403 45.872H268.635C267.035 45.872 265.787 45.424 264.891 44.528C264.059 43.568 263.643 42.384 263.643 40.976C263.643 39.696 264.027 38.576 264.795 37.616C265.563 36.592 266.651 36.08 268.059 36.08H269.787C269.787 32.304 270.331 28.688 271.419 25.232C272.571 21.712 274.235 19.344 276.411 18.128C278.587 16.976 280.635 16.4 282.555 16.4C285.243 16.4 287.387 16.88 288.987 17.84C290.587 18.8 291.387 20.176 291.387 21.968C291.387 23.44 291.035 24.624 290.331 25.52C289.627 26.416 288.635 26.864 287.355 26.864C286.971 26.864 286.587 26.832 286.203 26.768C285.883 26.704 285.563 26.64 285.243 26.576C284.347 26.32 283.419 26.192 282.459 26.192C281.371 26.192 280.635 27.088 280.251 28.88C279.867 30.608 279.579 33.008 279.387 36.08H283.515C284.987 36.08 286.139 36.56 286.971 37.52C287.867 38.48 288.315 39.6 288.315 40.88C288.315 42.16 287.867 43.28 286.971 44.24C286.139 45.2 284.987 45.68 283.515 45.68H279.003L279.099 52.976C279.675 67.184 280.187 76.24 280.635 80.144C280.827 82.256 280.411 83.76 279.387 84.656C278.363 85.552 277.115 86 275.643 86ZM305.652 76.496C306.804 77.584 307.38 78.896 307.38 80.432C307.38 81.904 306.836 83.184 305.748 84.272C304.66 85.36 303.348 85.904 301.812 85.904C300.276 85.904 298.964 85.36 297.876 84.272C296.852 83.184 296.34 81.904 296.34 80.432C296.34 78.896 296.852 77.584 297.876 76.496C298.964 75.408 300.276 74.864 301.812 74.864C303.348 74.864 304.628 75.408 305.652 76.496ZM340.05 86.192C336.402 86.256 332.818 85.616 329.298 84.272C325.842 82.928 322.994 80.976 320.754 78.416C318.45 75.728 316.914 72.528 316.146 68.816C315.442 65.04 315.41 61.456 316.05 58.064C316.754 54.672 317.906 51.408 319.506 48.272C320.786 45.904 322.322 43.792 324.114 41.936C325.906 40.016 327.986 38.416 330.354 37.136C332.786 35.792 335.346 35.088 338.034 35.024C340.786 34.896 343.73 35.472 346.866 36.752C348.53 37.52 350.226 38.736 351.954 40.4L355.026 43.472C356.05 44.304 356.626 45.392 356.754 46.736C356.882 48.08 356.498 49.264 355.602 50.288C354.77 51.248 353.682 51.792 352.338 51.92C350.994 52.048 349.842 51.664 348.882 50.768C348.306 50.32 347.634 49.712 346.866 48.944L345.234 47.312C344.338 46.416 343.602 45.84 343.026 45.584C340.146 44.304 337.394 44.336 334.77 45.68C332.146 46.96 329.906 49.328 328.05 52.784C326.13 56.368 325.17 59.952 325.17 63.536C325.234 67.12 326.194 69.968 328.05 72.08C329.202 73.424 330.866 74.512 333.042 75.344C335.218 76.176 337.522 76.592 339.954 76.592C344.882 76.464 348.05 74.704 349.458 71.312L349.362 70.832V68.048C349.426 66.704 349.938 65.616 350.898 64.784C351.922 63.888 353.106 63.472 354.45 63.536C355.794 63.6 356.882 64.144 357.714 65.168C358.61 66.128 359.026 67.28 358.962 68.624V70.736C359.026 72.336 358.802 73.744 358.29 74.96C356.818 78.672 354.386 81.456 350.994 83.312C347.666 85.168 344.018 86.128 340.05 86.192ZM394.696 85.328C386.248 87.376 379.496 85.68 374.44 80.24C370.408 76.08 367.912 70.736 366.952 64.208C366.248 59.088 366.856 54.224 368.776 49.616C371.08 43.728 374.728 39.376 379.72 36.56C380.744 35.984 382.024 35.568 383.56 35.312C383.624 35.312 384.072 35.28 384.904 35.216C385.224 35.152 385.48 35.088 385.672 35.024C386.632 34.832 387.592 34.928 388.552 35.312C388.808 35.312 389.416 35.344 390.376 35.408C391.336 35.408 391.976 35.44 392.296 35.504C392.616 35.504 393.16 35.568 393.928 35.696C394.76 35.76 395.432 35.856 395.944 35.984L397.768 36.656C398.536 36.912 399.272 37.232 399.976 37.616C400.68 38 401.448 38.448 402.28 38.96C406.44 41.776 409.32 45.744 410.92 50.864C412.52 55.92 412.936 60.016 412.168 63.152C411.592 66.608 410.568 69.84 409.096 72.848C407.624 75.792 405.576 78.416 402.952 80.72C400.392 83.024 397.64 84.56 394.696 85.328ZM391.72 75.344C394.472 74.96 396.808 73.552 398.728 71.12C400.712 68.624 401.992 66 402.568 63.248C403.208 60.496 402.984 57.488 401.896 54.224C400.872 50.896 399.208 48.496 396.904 47.024C396.2 46.512 395.624 46.16 395.176 45.968C394.728 45.712 394.184 45.52 393.544 45.392C392.968 45.2 392.488 45.104 392.104 45.104C391.784 45.104 391.048 45.072 389.896 45.008C388.744 44.944 387.72 44.88 386.824 44.816C386.632 44.816 386.408 44.784 386.152 44.72C385.448 44.784 385.064 44.816 385 44.816L384.328 45.008C381.512 46.544 379.336 49.008 377.8 52.4C376.328 55.728 375.912 59.184 376.552 62.768C377.256 67.12 378.824 70.416 381.256 72.656C383.88 75.088 387.368 75.984 391.72 75.344ZM460.874 86C459.85 86 458.922 85.712 458.09 85.136C457.258 84.56 456.682 83.472 456.362 81.872C453.61 83.856 450.73 85.136 447.722 85.712C443.562 86.48 439.754 86.256 436.298 85.04C432.842 83.824 429.93 81.808 427.562 78.992C423.274 74 421.162 67.664 421.226 59.984C421.29 53.072 423.53 47.12 427.946 42.128C433.258 36.176 440.234 33.968 448.874 35.504C451.818 36.016 454.058 36.688 455.594 37.52L455.402 22.16C455.402 20.816 455.85 19.664 456.746 18.704C457.706 17.744 458.826 17.264 460.106 17.264C461.45 17.264 462.602 17.744 463.562 18.704C464.522 19.6 465.002 20.688 465.002 21.968C465.45 51.152 465.674 70.896 465.674 81.2C465.674 82.544 465.194 83.696 464.234 84.656C463.338 85.552 462.218 86 460.874 86ZM445.994 76.304C447.21 76.048 448.49 75.6 449.834 74.96C451.178 74.32 452.106 73.808 452.618 73.424C453.194 72.976 453.61 72.592 453.866 72.272C454.186 71.952 454.538 71.6 454.922 71.216C455.306 70.768 455.658 70.096 455.978 69.2C455.978 61.072 455.914 54.608 455.786 49.808C455.722 49.808 455.658 49.776 455.594 49.712C452.906 47.408 451.562 46.224 451.562 46.16C450.858 45.712 449.386 45.296 447.146 44.912C442.026 44.016 438.026 45.232 435.146 48.56C432.266 51.696 430.826 55.504 430.826 59.984C430.762 65.296 432.106 69.584 434.858 72.848C437.61 76.048 441.322 77.2 445.994 76.304ZM501.89 86.48C497.154 86.16 493.026 85.2 489.506 83.6C485.986 82 483.298 79.984 481.442 77.552C479.586 75.12 478.242 72.88 477.41 70.832C476.578 68.784 476.066 66.768 475.874 64.784C475.682 62.736 475.778 60.112 476.162 56.912C476.61 54.224 477.538 51.568 478.946 48.944C480.418 46.32 482.338 43.984 484.706 41.936C487.138 39.824 490.05 38.224 493.442 37.136C496.834 35.984 500.45 35.632 504.29 36.08C508.002 36.528 511.17 37.552 513.794 39.152C516.418 40.688 518.658 42.672 520.514 45.104C522.114 47.152 523.074 48.688 523.394 49.712C523.778 50.736 524.098 51.696 524.354 52.592C524.674 53.488 524.93 54.256 525.122 54.896C525.314 55.536 525.474 56.208 525.602 56.912C525.794 57.552 525.922 58.32 525.986 59.216C526.05 60.432 525.826 61.552 525.314 62.576C524.802 63.6 524.034 64.4 523.01 64.976C522.178 65.296 521.282 65.456 520.322 65.456L503.906 65.744C492.386 65.808 486.626 65.936 486.626 66.128H486.338C487.17 69.392 488.898 71.952 491.522 73.808C494.21 75.664 497.858 76.752 502.466 77.072C504.962 77.2 507.042 77.072 508.706 76.688C510.562 76.176 511.906 75.728 512.738 75.344C513.57 74.896 514.594 74.32 515.81 73.616C517.026 73.168 518.242 73.232 519.458 73.808C520.674 74.384 521.506 75.28 521.954 76.496C522.402 77.712 522.338 78.896 521.762 80.048C521.25 81.2 520.418 82.096 519.266 82.736C518.242 83.312 517.186 83.824 516.098 84.272C515.01 84.656 513.41 85.136 511.298 85.712C509.186 86.288 506.05 86.544 501.89 86.48ZM486.53 56.72C490.242 56.528 499.874 56.336 515.426 56.144C514.85 54.224 513.922 52.4 512.642 50.672C510.082 47.728 506.914 46.032 503.138 45.584C499.17 45.072 495.682 45.936 492.674 48.176C489.666 50.352 487.618 53.2 486.53 56.72ZM545.356 86C540.62 85.168 537.196 83.248 535.084 80.24C534.06 78.896 533.324 77.104 532.876 74.864L532.492 72.752C532.364 72.112 532.236 71.6 532.108 71.216C531.724 70 531.852 68.816 532.492 67.664C533.132 66.512 534.092 65.776 535.372 65.456C536.652 65.136 537.868 65.264 539.02 65.84C540.172 66.416 540.94 67.344 541.324 68.624C541.516 69.328 541.708 70.128 541.9 71.024C541.964 71.344 541.996 71.664 541.996 71.984C542.06 72.24 542.188 72.72 542.38 73.424C542.572 74.256 543.02 74.96 543.724 75.536C544.492 76.24 545.644 76.688 547.18 76.88C549.74 77.392 552.492 77.328 555.436 76.688C558.316 76.048 560.556 75.12 562.156 73.904C563.308 72.88 563.788 71.824 563.596 70.736C563.404 68.944 562.284 67.6 560.236 66.704C558.956 66.128 555.628 65.36 550.252 64.4C544.684 63.312 540.748 61.904 538.444 60.176C534.22 57.04 532.844 52.368 534.316 46.16C535.212 42.576 537.036 39.952 539.788 38.288C542.604 36.56 545.708 35.6 549.1 35.408C551.98 35.28 554.892 35.632 557.836 36.464C560.844 37.232 563.404 38.32 565.516 39.728C566.22 40.24 566.956 40.848 567.724 41.552C568.492 42.256 569.228 43.024 569.932 43.856C570.7 44.688 571.148 45.136 571.276 45.2C572.236 46.16 572.716 47.28 572.716 48.56C572.716 49.776 572.236 50.864 571.276 51.824C570.38 52.72 569.26 53.168 567.916 53.168C566.636 53.168 565.516 52.72 564.556 51.824C563.916 51.248 563.276 50.64 562.636 50L561.292 48.368C560.908 48.048 560.46 47.728 559.948 47.408C558.732 46.64 557.164 46 555.244 45.488C553.324 44.912 551.436 44.656 549.58 44.72C546.188 44.912 544.236 46.096 543.724 48.272C543.148 50.576 543.34 52.08 544.3 52.784C545.452 53.616 548.044 54.448 552.076 55.28C558.028 56.304 562.092 57.296 564.268 58.256C569.516 60.624 572.492 64.432 573.196 69.68C573.772 73.968 572.172 77.68 568.396 80.816C565.516 83.184 561.868 84.816 557.452 85.712C553.228 86.672 549.196 86.768 545.356 86Z" fill="white"/>
<path d="M306.08 122.843C326.96 110.944 356.833 94.5069 407.213 90.2648C434.344 87.9803 461.184 86.0021 488.445 85.7287C506.1 85.5516 523.723 86.4674 541.358 86.4617C553.241 86.4579 565.036 86.0012 576.783 88.634" stroke="white" stroke-width="9" stroke-linecap="round" stroke-linejoin="round"/>
<path d="M303.761 117.323C325.772 107.673 357.201 94.4518 407.748 95.5034C434.969 96.0698 461.869 96.9104 489.009 99.4904C506.586 101.161 524.016 103.916 541.555 105.755C553.373 106.994 565.151 107.774 576.558 111.621" stroke="white" stroke-width="9" stroke-linecap="round" stroke-linejoin="round"/>
</svg>
